<svg width="1600" height="900" viewBox="0 0 1600 900" xmlns="http://www.w3.org/2000/svg">
  <defs>
    <linearGradient id="sky" x1="0" y1="0" x2="1" y2="1">
      <stop offset="0" stop-color="#fff7ed"/>
      <stop offset="0.5" stop-color="#fed7aa"/>
      <stop offset="1" stop-color="#fee2e2"/>
    </linearGradient>
    <linearGradient id="build" x1="0" y1="0" x2="0" y2="1">
      <stop offset="0" stop-color="#ffffff"/>
      <stop offset="1" stop-color="#f1f5f9"/>
    </linearGradient>
    <filter id="shadow" x="-20%" y="-20%" width="140%" height="140%">
      <feDropShadow dx="0" dy="16" stdDeviation="18" flood-color="#7f1d1d" flood-opacity="0.22"/>
    </filter>
  </defs>
  <rect width="1600" height="900" fill="url(#sky)"/>
  <circle cx="1360" cy="150" r="110" fill="#fb923c" opacity="0.35"/>
  <circle cx="210" cy="180" r="160" fill="#ef4444" opacity="0.18"/>
  <path d="M0 720 C300 650 500 770 790 700 C1120 620 1270 710 1600 640 L1600 900 L0 900 Z" fill="#16a34a" opacity="0.22"/>
  <g filter="url(#shadow)">
    <rect x="230" y="320" width="1140" height="360" rx="34" fill="url(#build)"/>
    <rect x="285" y="380" width="210" height="230" rx="18" fill="#fee2e2"/>
    <rect x="530" y="380" width="210" height="230" rx="18" fill="#ffedd5"/>
    <rect x="775" y="380" width="210" height="230" rx="18" fill="#fee2e2"/>
    <rect x="1020" y="380" width="210" height="230" rx="18" fill="#ffedd5"/>
    <rect x="675" y="540" width="250" height="140" rx="20" fill="#7f1d1d"/>
    <rect x="720" y="580" width="70" height="100" rx="10" fill="#fff7ed"/>
    <rect x="810" y="580" width="70" height="100" rx="10" fill="#fff7ed"/>
    <rect x="210" y="270" width="1180" height="80" rx="24" fill="#b91c1c"/>
    <rect x="255" y="290" width="1090" height="36" rx="18" fill="#f97316"/>
    <text x="800" y="322" text-anchor="middle" font-family="Arial, sans-serif" font-size="44" font-weight="900" fill="#ffffff">KLH UNIVERSITY</text>
    <text x="800" y="745" text-anchor="middle" font-family="Arial, sans-serif" font-size="52" font-weight="900" fill="#7f1d1d">Smart Canteen Campus Experience</text>
    <text x="800" y="805" text-anchor="middle" font-family="Arial, sans-serif" font-size="34" font-weight="700" fill="#c2410c">Order • Pay • Pickup • No Queue</text>
  </g>
</svg>
